<?xml version="1.0" encoding="UTF-8" standalone="no"?><!-- Generator: Gravit.io --><svg xmlns="http://www.w3.org/2000/svg" xmlns:xlink="http://www.w3.org/1999/xlink" style="isolation:isolate" viewBox="0 0 400 300"><defs><clipPath id="_clipPath_ZE4EdfD84PEf1lbYo2xtUdcZg9XTcDIR"><rect width="400" height="300"/></clipPath></defs><g clip-path="url(#_clipPath_ZE4EdfD84PEf1lbYo2xtUdcZg9XTcDIR)"><g><path d=" M 349.765 156.907 L 329.484 177.77 L 310.663 135.805 L 320.402 111.672 C 322.867 106.834 326.889 106.825 329.354 111.672 L 349.765 156.907 Z " fill="rgb(255,160,0)"/><path d=" M 329.484 177.769 L 253.692 255.713 L 310.663 135.804 L 329.484 177.769 Z " fill="rgb(245,127,23)"/><path d=" M 371.948 125.018 C 375.571 121.168 379.318 122.481 380.272 127.936 L 400 254.669 L 334.603 297.997 C 332.314 299.394 326.254 300 326.254 300 C 326.254 300 320.722 299.269 318.614 297.975 L 253.69 255.709 L 371.948 125.018 Z " fill="rgb(255,202,40)"/><path d=" M 310.663 135.804 L 253.692 255.713 L 279.068 80.464 C 280.003 75.004 282.814 74.478 285.322 79.297 L 310.663 135.804 Z " fill="rgb(255,160,0)"/></g><g><path d=" M 109.777 111.775 L 0 300 L 219.553 300 L 109.777 111.775 Z " fill="rgb(72,184,132)"/><path d=" M 72.837 300 L 256 300 L 164.419 142.972 L 72.837 300 Z " fill="rgb(63,127,112)"/><path d=" M 72.837 300 L 219.553 300 L 146.195 174.218 L 72.837 300 Z " fill="rgb(54,73,93)"/></g><g><path d=" M 207 0 L 168.563 0 L 207 97.951" fill="rgb(22,151,246)"/><path d=" M 207 0 L 245.438 0 L 207 97.951" fill="rgb(24,103,192)"/><path d=" M 207 126.219 L 207 201.998 L 125 29.394 L 167.953 29.394" fill="rgb(123,198,255)"/><path d=" M 207 126.221 L 207 202 L 289 29.396 L 246.047 29.396" fill="rgb(174,221,255)"/></g></g></svg>